<svg width="1000" height="1000" viewBox="0 0 1000 1000" fill="none" xmlns="http://www.w3.org/2000/svg">
<rect width="1000" height="1000" fill="#A8F18F"/>
<rect x="300" y="300" width="400" height="400" rx="80" fill="#FDF8F1"/>
<g clip-path="url(#clip0_3_4956)">
<path d="M555 430.001C558.978 430.001 562.793 431.582 565.607 434.395C568.42 437.208 570 441.023 570 445.001V545.001C570 548.979 568.42 552.794 565.607 555.607C562.793 558.42 558.978 560.001 555 560.001H475.615L436.213 569.852C434.509 570.278 432.707 569.778 431.465 568.536C430.223 567.294 429.724 565.492 430.149 563.788L440 524.386V445.001C440 441.023 441.581 437.208 444.394 434.395C447.207 431.582 451.022 430.001 455 430.001H555Z" fill="black"/>
<path d="M511.707 531.261C512.067 532.126 512.227 532.684 512.74 533.198C513.254 533.711 513.95 534 514.676 534C515.401 534 516.098 533.711 516.611 533.198C517.124 532.684 517.432 532.511 517.798 531.261C518.165 530.011 538.705 469.252 538.705 469.252C539.037 468.283 539.09 467.239 538.859 466.241C538.627 465.243 538.121 464.329 537.397 463.604C536.673 462.88 535.76 462.373 534.762 462.141C533.765 461.91 532.722 461.963 531.753 462.295C531.753 462.295 470.569 483.321 469.737 483.578C468.905 483.835 468.315 484.167 467.802 484.68C467.288 485.194 467 485.89 467 486.617C467 487.343 467.288 488.04 467.802 488.554C468.315 489.067 468.606 489.185 469.737 489.57C470.868 489.955 500.718 500.311 500.718 500.311C500.718 500.311 511.346 530.397 511.707 531.261Z" fill="#9AF18A"/>
</g>
<defs>
<clipPath id="clip0_3_4956">
<rect width="140" height="140" fill="white" transform="translate(430 430)"/>
</clipPath>
</defs>
</svg>
