<svg width="500" height="500" viewBox="0 0 500 500" fill="none" xmlns="http://www.w3.org/2000/svg">
<rect width="500" height="500" fill="#F6F0E8"/>
<g clip-path="url(#clip0_11_547)">
<path d="M390.429 69.0024C400.659 69.0025 410.469 73.0668 417.703 80.3003C424.936 87.5338 429 97.3441 429 107.574V364.716C429 374.946 424.936 384.757 417.703 391.991C410.469 399.224 400.659 403.288 390.429 403.289H186.296L84.9761 428.619C80.5948 429.714 75.9605 428.429 72.7671 425.236C69.5737 422.042 68.2891 417.408 69.3843 413.027L94.7144 311.707V107.574C94.7144 97.3441 98.7788 87.5338 106.012 80.3003C113.246 73.0668 123.056 69.0026 133.286 69.0024H390.429Z" fill="#A8F18F"/>
<path d="M279.102 329.386C280.029 331.609 280.441 333.045 281.761 334.366C283.081 335.686 284.871 336.428 286.737 336.428C288.604 336.428 290.394 335.686 291.713 334.366C293.033 333.045 293.824 332.599 294.766 329.386C295.709 326.172 348.527 169.934 348.527 169.934C349.38 167.441 349.517 164.758 348.922 162.191C348.328 159.624 347.025 157.275 345.163 155.411C343.301 153.548 340.954 152.245 338.389 151.649C335.823 151.054 333.143 151.191 330.651 152.045C330.651 152.045 173.319 206.112 171.18 206.773C169.041 207.433 167.524 208.285 166.204 209.606C164.884 210.927 164.143 212.718 164.143 214.586C164.143 216.454 164.884 218.245 166.204 219.566C167.524 220.887 168.272 221.189 171.18 222.179C174.089 223.169 250.846 249.801 250.846 249.801C250.846 249.801 278.176 327.162 279.102 329.386Z" fill="black"/>
</g>
<defs>
<clipPath id="clip0_11_547">
<rect width="360" height="360" fill="white" transform="translate(69 69)"/>
</clipPath>
</defs>
</svg>
