<svg width="1000" height="450" viewBox="0 0 1000 450" fill="none" xmlns="http://www.w3.org/2000/svg">
<rect width="1000" height="450" fill="black"/>
<path d="M434.932 224.416V187.831V180.354C434.932 175.191 434.576 171.986 433.864 170.829C433.241 169.672 431.371 169.049 428.345 169.049H418.731C415.082 169.049 412.322 169.494 410.364 170.473C408.494 171.363 406.714 173.054 405.201 175.458C404.133 177.149 402.886 179.731 401.373 183.291C398.97 189.077 396.655 192.015 394.252 192.015C391.67 192.015 390.246 189.344 390.246 184.003C390.246 176.259 391.403 169.85 393.629 164.776C395.854 159.702 398.614 157.21 401.907 157.21C402.174 157.21 402.797 157.299 403.777 157.566C407.07 158.367 410.275 158.812 413.39 158.812H471.25C474.366 158.812 477.57 158.367 480.864 157.566C481.843 157.299 482.466 157.21 482.733 157.21C486.027 157.21 488.875 159.791 491.101 164.865C493.415 169.939 494.572 176.259 494.572 184.003C494.572 189.255 493.148 192.015 490.389 192.015C487.985 192.015 485.671 189.166 483.445 183.469C481.932 179.82 480.686 177.149 479.618 175.458C476.502 170.562 473.298 169.049 465.909 169.049H456.296C453.358 169.049 451.489 169.583 450.866 170.651C450.243 171.63 449.887 174.479 449.887 179.107V187.831V224.416C449.887 244.267 450.065 257.975 450.421 265.453C450.866 272.93 451.489 277.292 452.468 278.449C452.913 279.072 454.871 279.962 458.254 281.119C461.726 282.276 463.417 283.701 463.417 285.392C463.417 289.932 457.364 291.712 442.409 291.712C427.366 291.712 421.224 289.754 421.224 285.392C421.224 283.701 422.915 282.276 426.298 281.119C429.769 279.962 431.727 279.072 432.262 278.36C433.241 277.203 433.864 272.574 434.309 264.562C434.754 256.551 434.932 243.199 434.932 224.416ZM512.023 214.625L513.091 215.159C520.657 203.498 529.47 197.089 537.57 197.089C544.246 197.089 548.697 201.628 548.697 208.394C548.697 214.358 544.513 218.63 538.816 218.63C533.742 218.63 530.182 215.248 529.381 209.551C523.061 211.598 518.699 214.803 516.206 219.164C513.803 223.526 512.557 232.962 512.557 247.471C512.557 258.42 512.735 266.254 513.002 271.15C513.269 275.956 513.803 278.805 514.426 279.695C515.316 281.03 517.364 282.009 520.657 282.455C521.725 282.544 522.615 282.722 523.239 282.811C525.82 283.256 527.511 284.502 527.511 286.282C527.511 290.11 520.924 291.712 506.593 291.712C493.774 291.712 488.522 290.11 488.522 286.282C488.522 284.769 489.769 283.612 492.261 282.811C494.754 282.009 496.267 281.386 496.89 280.763C497.869 279.962 498.492 278.004 498.848 274.977C499.293 271.951 499.471 266.699 499.471 259.132C499.471 238.748 498.937 225.218 497.78 218.719C497.424 216.227 496.801 214.536 496 213.646C495.199 212.666 493.329 212.221 490.57 212.221H488.879C487.009 212.221 485.229 210.619 485.229 208.572C485.229 206.346 486.742 204.655 491.46 202.43C497.513 199.225 503.833 197.089 506.059 197.089C509.263 197.089 510.865 201.539 512.023 214.625ZM571.221 233.941H616.263C619.022 233.941 619.734 233.14 619.734 230.291C619.734 223.348 617.42 217.562 612.702 213.022C607.984 208.394 602.109 206.079 594.899 206.079C587.333 206.079 580.301 209.551 575.049 215.693C570.865 220.678 568.105 227.087 568.105 231.36C568.105 233.229 568.818 233.941 571.221 233.941ZM627.034 241.596H570.865C568.462 241.596 567.749 242.309 567.749 245.068C567.749 256.195 570.687 265.275 576.562 272.396C582.437 279.428 589.914 282.989 599.083 282.989C606.204 282.989 613.147 280.585 618.577 276.045C620.002 274.888 621.96 272.93 624.452 270.081C627.034 267.233 629.17 265.809 630.861 265.809C632.909 265.809 634.333 267.233 634.333 269.102C634.333 271.684 632.642 274.977 629.704 278.271C620.803 288.152 608.875 293.403 595.433 293.403C582.704 293.403 572.2 289.042 563.833 280.229C555.554 271.417 551.371 260.29 551.371 246.848C551.371 232.606 555.732 220.856 564.456 211.509C573.179 202.163 584.128 197.445 597.303 197.445C608.697 197.445 617.776 200.649 624.452 207.058C631.128 213.467 634.511 222.102 634.511 233.051C634.511 236.612 634.155 238.926 633.354 239.994C632.553 241.062 630.505 241.596 627.034 241.596ZM669.23 249.964V254.504C669.23 270.882 669.675 277.915 670.833 279.695C671.545 280.852 673.236 281.831 675.995 282.722C678.755 283.523 680.179 284.769 680.179 286.282C680.179 290.11 674.838 291.712 662.287 291.712C649.558 291.712 644.217 290.11 644.217 286.282C644.217 284.769 645.552 283.523 648.312 282.722C651.071 281.831 652.851 280.852 653.564 279.695C654.187 278.627 654.632 275.155 654.899 269.28C655.166 263.405 655.344 251.833 655.344 234.653C655.344 211.42 655.166 195.397 654.721 186.674C654.365 177.861 653.742 172.787 652.762 171.363C652.317 170.562 650.448 170.028 647.243 169.583C644.039 169.138 642.437 167.803 642.437 165.755C642.437 163.53 644.484 161.749 649.113 159.702C652.228 158.545 655.344 157.566 658.37 156.854C661.486 156.052 663.711 155.696 665.047 155.696C668.607 155.696 669.764 157.21 669.764 162.284C669.764 162.818 669.586 169.494 669.23 182.401C668.874 195.219 668.696 207.77 668.696 220.055C668.696 227.443 668.785 231.894 668.963 233.585C669.23 235.276 669.586 236.077 670.12 236.166C671.99 236.166 676.351 232.784 682.494 226.642C687.656 221.568 691.128 217.918 692.997 215.604C694.867 213.289 695.846 211.598 695.846 210.441C695.846 209.106 694.511 207.949 691.929 207.058C689.348 206.168 688.013 205.011 688.013 203.676C688.013 200.115 693.799 198.602 708.397 198.602C720.859 198.602 726.111 200.026 726.111 203.32C726.111 204.833 723.797 206.257 719.079 207.77C714.361 209.284 710.444 211.242 707.151 213.735C701.543 217.918 696.558 222.458 692.018 227.354C687.478 232.161 685.253 235.009 685.253 235.988C685.253 236.701 686.143 238.481 688.903 242.13C695.757 251.388 702.166 259.399 707.952 266.165C713.738 272.841 718.367 277.559 721.749 280.229C723.53 281.742 726.2 282.722 729.761 283.345C733.41 283.968 735.191 285.125 735.191 286.816C735.191 290.11 729.049 292.068 718.1 292.068C714.984 292.068 712.581 291.623 710.89 290.822C709.198 290.021 706.973 287.884 704.035 284.591C702.522 282.9 698.872 278.182 693.086 270.437C687.389 262.693 682.138 256.106 677.42 250.498C673.147 245.513 671.812 244.356 671.011 244.356C669.675 244.356 669.23 245.246 669.23 249.964ZM752.312 167.803C752.312 162.106 756.585 157.744 762.193 157.744C767.801 157.744 771.628 161.393 771.628 166.645C771.628 171.986 767.267 176.348 761.837 176.348C756.496 176.348 752.312 172.698 752.312 167.803ZM755.784 256.373C755.784 242.041 755.606 231.627 755.25 225.039C754.893 218.363 754.27 214.447 753.469 213.2C752.935 212.399 751.066 211.776 747.95 211.331C744.835 210.886 743.232 209.551 743.232 207.503C743.232 205.1 744.924 203.498 749.82 201.45C755.784 199.047 762.193 197.445 765.664 197.445C768.869 197.445 770.026 198.958 770.026 204.032C770.026 204.655 770.026 206.346 769.937 209.195C769.492 225.663 769.314 242.309 769.314 259.132C769.314 267.233 769.492 272.663 769.848 275.422C770.204 278.182 770.827 279.962 771.628 280.763C772.251 281.386 773.854 282.009 776.346 282.811C778.839 283.612 780.085 284.769 780.085 286.282C780.085 289.932 774.744 291.712 762.727 291.712C750.176 291.712 744.835 290.11 744.835 286.282C744.835 284.769 746.081 283.612 748.573 282.811C751.066 282.009 752.668 281.386 753.291 280.763C754.181 279.962 754.804 277.826 755.161 274.443C755.606 270.972 755.784 265.007 755.784 256.373Z" fill="white"/>
<g clip-path="url(#clip0_11_517)">
<path d="M339 159.001C342.978 159.001 346.793 160.582 349.606 163.395C352.419 166.208 354 170.023 354 174.001V274.001C354 277.979 352.419 281.794 349.606 284.607C346.793 287.42 342.978 289.001 339 289.001H259.615L220.213 298.852C218.509 299.278 216.707 298.778 215.465 297.536C214.223 296.294 213.723 294.492 214.149 292.788L224 253.386V174.001C224 170.023 225.581 166.208 228.394 163.395C231.207 160.582 235.022 159.001 239 159.001H339Z" fill="white"/>
<path d="M295.707 260.261C296.067 261.126 296.227 261.684 296.74 262.198C297.254 262.711 297.95 263 298.676 263C299.401 263 300.098 262.711 300.611 262.198C301.124 261.684 301.432 261.511 301.798 260.261C302.165 259.011 322.705 198.252 322.705 198.252C323.037 197.283 323.09 196.239 322.859 195.241C322.627 194.243 322.121 193.329 321.397 192.604C320.673 191.88 319.76 191.373 318.762 191.141C317.765 190.91 316.722 190.963 315.753 191.295C315.753 191.295 254.569 212.321 253.737 212.578C252.905 212.835 252.315 213.167 251.802 213.68C251.288 214.194 251 214.89 251 215.617C251 216.343 251.288 217.04 251.802 217.554C252.315 218.067 252.606 218.185 253.737 218.57C254.868 218.955 284.718 229.311 284.718 229.311C284.718 229.311 295.346 259.397 295.707 260.261Z" fill="black"/>
</g>
<defs>
<clipPath id="clip0_11_517">
<rect width="140" height="140" fill="white" transform="translate(214 159)"/>
</clipPath>
</defs>
</svg>
